<svg width="94" height="25" viewBox="0 0 94 25" fill="none" xmlns="http://www.w3.org/2000/svg">
<path d="M4.9725 24.2588L7.085 15.3851L0 9.41668L9.36 8.62721L13 0.258789L16.64 8.62721L26 9.41668L18.915 15.3851L21.0275 24.2588L13 19.5535L4.9725 24.2588Z" fill="#E9DD01"/>
<path d="M38.9725 24.2588L41.085 15.3851L34 9.41668L43.36 8.62721L47 0.258789L50.64 8.62721L60 9.41668L52.915 15.3851L55.0275 24.2588L47 19.5535L38.9725 24.2588Z" fill="#E9DD01"/>
<path d="M72.9725 24.2588L75.085 15.3851L68 9.41668L77.36 8.62721L81 0.258789L84.64 8.62721L94 9.41668L86.915 15.3851L89.0275 24.2588L81 19.5535L72.9725 24.2588Z" fill="#E9DD01"/>
</svg>
