<?xml version="1.0" encoding="utf-8"?>
<!-- Generator: Adobe Illustrator 27.7.0, SVG Export Plug-In . SVG Version: 6.00 Build 0)  -->
<svg version="1.1" id="Capa_1" xmlns="http://www.w3.org/2000/svg" xmlns:xlink="http://www.w3.org/1999/xlink" x="0px" y="0px"
	 viewBox="0 0 28 16" style="enable-background:new 0 0 28 16;" xml:space="preserve">
<style type="text/css">
	.st0{fill:#303030;}
</style>
<path class="st0" d="M27.3,15.3c0.2-0.2,0.4-0.5,0.5-0.7c0.1-0.3,0.2-0.6,0.2-0.9c0-0.3-0.1-0.6-0.2-0.9c-0.1-0.3-0.3-0.5-0.5-0.7
	L15.7,0.7c-0.2-0.2-0.5-0.4-0.8-0.5C14.6,0.1,14.3,0,14,0s-0.6,0.1-0.9,0.2c-0.3,0.1-0.5,0.3-0.8,0.5L0.7,12.1
	c-0.2,0.2-0.4,0.5-0.5,0.7C0.1,13.1,0,13.4,0,13.7s0.1,0.6,0.2,0.9c0.1,0.3,0.3,0.5,0.5,0.7s0.5,0.4,0.8,0.5C1.7,15.9,2,16,2.3,16
	s0.6-0.1,0.9-0.2c0.3-0.1,0.5-0.3,0.8-0.5l10-9.8l10,9.8c0.2,0.2,0.5,0.4,0.8,0.5s0.6,0.2,0.9,0.2s0.6-0.1,0.9-0.2
	C26.8,15.7,27.1,15.5,27.3,15.3z"/>
</svg>
