<svg width="35" height="27" viewBox="0 0 35 27" fill="none" xmlns="http://www.w3.org/2000/svg">
<path d="M1.3762 11.6558C0.85016 12.1665 0.554688 12.859 0.554688 13.5809C0.554688 14.3028 0.85016 14.9952 1.3762 15.506L11.9681 25.7836C12.4951 26.2947 13.2098 26.5818 13.9551 26.5818C14.7003 26.5818 15.415 26.2947 15.942 25.7836C16.469 25.2726 16.765 24.5794 16.765 23.8567C16.765 23.1339 16.469 22.4408 15.942 21.9297L10.1441 16.3051L31.7456 16.3051C32.4907 16.3051 33.2051 16.0181 33.7319 15.5072C34.2587 14.9963 34.5547 14.3034 34.5547 13.5809C34.5547 12.8584 34.2587 12.1654 33.7319 11.6546C33.2051 11.1437 32.4907 10.8566 31.7456 10.8566L10.1441 10.8566L15.942 5.23383C16.2029 4.98078 16.4099 4.68037 16.5511 4.34974C16.6923 4.01912 16.765 3.66476 16.765 3.30689C16.765 2.94902 16.6923 2.59466 16.5511 2.26404C16.4099 1.93341 16.2029 1.633 15.942 1.37995C15.6811 1.1269 15.3713 0.926172 15.0304 0.789223C14.6895 0.652273 14.3241 0.581785 13.9551 0.581785C13.5861 0.581785 13.2207 0.652273 12.8798 0.789223C12.5388 0.926172 12.2291 1.1269 11.9681 1.37995L1.3762 11.6558Z" fill="#E9DD01"/>
</svg>
