<svg width="28" height="16" viewBox="0 0 28 16" fill="none" xmlns="http://www.w3.org/2000/svg">
<path d="M0.689529 0.674993C0.47104 0.887128 0.297622 1.13951 0.179276 1.41759C0.0609303 1.69566 -6.12225e-07 1.99392 -5.99057e-07 2.29517C-5.8589e-07 2.59641 0.0609303 2.89467 0.179276 3.17274C0.297622 3.45082 0.471041 3.7032 0.689529 3.91534L12.3449 15.325C12.5616 15.5389 12.8195 15.7087 13.1035 15.8245C13.3876 15.9404 13.6923 16 14 16C14.3077 16 14.6124 15.9404 14.8965 15.8245C15.1805 15.7087 15.4384 15.5389 15.6551 15.325L27.3105 3.91534C27.529 3.7032 27.7024 3.45082 27.8207 3.17274C27.9391 2.89467 28 2.59641 28 2.29516C28 1.99392 27.9391 1.69566 27.8207 1.41759C27.7024 1.13951 27.529 0.887127 27.3105 0.674991C27.0938 0.461109 26.8359 0.291348 26.5519 0.175497C26.2678 0.0596461 25.9631 -1.8121e-07 25.6554 -1.67759e-07C25.3477 -1.54308e-07 25.043 0.0596462 24.7589 0.175497C24.4749 0.291348 24.217 0.461109 24.0003 0.674992L14 10.4873L3.99966 0.674992C3.78296 0.46111 3.52514 0.291349 3.24108 0.175498C2.95701 0.0596471 2.65233 8.37737e-07 2.3446 8.51189e-07C2.03687 8.6464e-07 1.73218 0.0596472 1.44812 0.175498C1.16405 0.291349 0.906233 0.46111 0.689529 0.674993Z" fill="#E9DD01"/>
</svg>
