<svg width="35" height="27" viewBox="0 0 35 27" fill="none" xmlns="http://www.w3.org/2000/svg">
<path d="M33.7332 15.5078C34.2592 14.997 34.5547 14.3046 34.5547 13.5827C34.5547 12.8608 34.2592 12.1684 33.7332 11.6576L23.1412 1.37995C22.6143 0.868895 21.8995 0.581787 21.1543 0.581787C20.4091 0.581786 19.6943 0.868895 19.1674 1.37995C18.6404 1.89101 18.3444 2.58415 18.3444 3.30689C18.3444 4.02963 18.6404 4.72278 19.1674 5.23383L24.9652 10.8585L3.36373 10.8585C2.61872 10.8585 1.90423 11.1455 1.37744 11.6564C0.85064 12.1673 0.554687 12.8602 0.554687 13.5827C0.554687 14.3052 0.85064 14.9981 1.37744 15.509C1.90423 16.0199 2.61872 16.3069 3.36372 16.3069L24.9652 16.3069L19.1674 21.9297C18.9064 22.1828 18.6995 22.4832 18.5583 22.8138C18.417 23.1445 18.3444 23.4988 18.3444 23.8567C18.3444 24.2145 18.417 24.5689 18.5583 24.8995C18.6995 25.2302 18.9064 25.5306 19.1674 25.7836C19.4283 26.0367 19.7381 26.2374 20.079 26.3744C20.4199 26.5113 20.7853 26.5818 21.1543 26.5818C21.5233 26.5818 21.8887 26.5113 22.2296 26.3744C22.5705 26.2374 22.8803 26.0367 23.1412 25.7836L33.7332 15.5078Z" fill="black"/>
</svg>
