<svg width="15" height="15" viewBox="0 0 15 15" fill="none" xmlns="http://www.w3.org/2000/svg">
<path d="M14.4621 2.25728C14.4618 1.85978 14.3038 1.47863 14.0227 1.19755C13.7417 0.916476 13.3605 0.75846 12.963 0.758213L4.96211 0.756092C4.56416 0.756092 4.1825 0.914177 3.90111 1.19557C3.61971 1.47697 3.46163 1.85862 3.46163 2.25657C3.46163 2.65452 3.61971 3.03618 3.90111 3.31757C4.1825 3.59897 4.56415 3.75705 4.96211 3.75705L9.34122 3.75776L1.18474 11.9142C0.903439 12.1955 0.745405 12.5771 0.745404 12.9749C0.745404 13.3727 0.903439 13.7543 1.18474 14.0356C1.46605 14.3169 1.84758 14.4749 2.2454 14.4749C2.64323 14.4749 3.02476 14.3169 3.30606 14.0356L11.4625 5.87908L11.4625 10.2575C11.4625 10.4545 11.5014 10.6496 11.5768 10.8317C11.6522 11.0137 11.7627 11.1792 11.902 11.3185C12.0414 11.4578 12.2068 11.5683 12.3888 11.6437C12.5709 11.7192 12.766 11.758 12.963 11.758C13.1601 11.758 13.3552 11.7192 13.5372 11.6437C13.7193 11.5683 13.8847 11.4578 14.024 11.3185C14.1634 11.1792 14.2739 11.0137 14.3493 10.8317C14.4247 10.6496 14.4635 10.4545 14.4635 10.2575L14.4621 2.25728Z" fill="black"/>
</svg>
