<?xml version="1.0" encoding="UTF-8"?>
<svg id="Capa_2" data-name="Capa 2" xmlns="http://www.w3.org/2000/svg" viewBox="0 0 753.85 225.1">
  <defs>
    <style>
      .cls-1 {
        stroke: #fff200;
        stroke-miterlimit: 10;
        stroke-width: .5px;
      }

      .cls-1, .cls-2 {
        fill: none;
      }

      .cls-2 {
        opacity: .1;
      }
    </style>
  </defs>
  <g id="Capa_2-2" data-name="Capa 2">
    <g class="cls-2">
      <path class="cls-1" d="m543.54,44.97c-8.77,2.03-14.33,5.13-14.33,5.13-4.77,2.22-16.13,11.45-19.54,21.12,0,0-6.05,16.76,1.98,27.41,6.26,6.45,14.82,9.34,29.25,6.49,9.1-1.96,32.56-7.27,32.56-7.27l.31-.26c.3-.73.73-1.44.88-2.19l7.21-35.93c.09-.69-.4-.43-1.3-.26l-32.18,7.15c-2.21.13-14.21,14.23-16.14,16.44,1.01-.07,1.66-.12,2.3-.17l24.78-5.63c.77-.13,2.16-.63,2.32.04-.16,1.2-1.48,6.87-1.97,8.51-.1.05-15.03,3.37-22.4,4.91-1.35.28-2.81.41-4.16.23-6.08-.85-9.37-4.03-8.59-9.89.67-5.04,3.2-9.23,6.63-12.96,4.14-4.51,9.44-6.78,15.3-8.02.13-.02.25-.05.38-.07l44.09-9.65c.78-.25,1.12-.06,1.28.16.21.26,15.01,20.49,15.01,20.49.13.8-3.69,16.93-4.05,18.59-.44,1.62.07,2.03.81,1.83.31-.07,9.76-2.15,14.05-3.08,2.67-.58,3.3-2.9,3.37-3.04l3.19-17.01c.22-.89.65-1.8,1.22-2.52,0,0,37.82-44.12,37.98-44.36h0c-.16-1.07-2.44-1.85-2.72-2.01l-14.51,3.1c-1.51.17-2.49,1.05-3.35,2.1-2.3,2.82-23.42,28.96-24,29.97-1.42-2.29-2.66-4.29-3.9-6.29-3.79-5.29-7.59-10.58-11.38-15.86-.11-.1-.21-.2-.32-.31-.42.06-.84.12-1.27.18-.13.04-54.18,11.92-54.18,11.92l-4.6,1.02Z"/>
      <path class="cls-1" d="m264.31,136.32c-.34.13-.71.52-.8.87-.75,2.85-6.99,26.85-7.52,28.78.31.29.62.57.93.86l1.62.43,13.98-3.14c.67-.19,1.34-.38,2-.57.36-.98,3.72-12.69,3.87-13.52.23-1.32.98-1.9,2.31-2.19,7.57-1.62,15.12-3.36,22.69-4.98.95-.2,2.28-.24,2.98.27,2.98,2.16,12.12,9.13,13.85,10.27.89-.13,24.46-5.31,25.01-5.65.51-.31.9-.83,1.34-1.26-.57-.47-1.14-.95-1.7-1.42-1.17-.96-11.07-8.58-14.48-11.19,1.65-1.11,11.89-9.23,12.41-9.75,4.66-4.6,7.73-10.03,8.72-16.52.43-2.8.34-5.6-.96-8.18-2.16-4.25-11.26-7.14-18.29-6.74-.08,0-2.67.31-2.75.32-47.63,10.43-69.75,15.28-101.11,22.28-1.15.26-2.16,1.08-2.99,1.93-1.95,1.98-10.07,11.54-12.35,14.19.12.83.49,1.32,1.45,1.17l20.67-4.34c.09.12-10.05,40.15-11.49,45.26-.19.68-.34,1.25.65,1.3l16.78-3.72c.21-.05.41-.1.62-.15.15-.08.29-.16.44-.24.59-1.57,11.06-39.74,12.64-45.75.13-.53.51-.87.69-1.02.44-1.35,66.25-15.35,69.86-15.73s5.32,2.14,6.08,4.23c.66,1.83-.12,5.09-1.93,6.9-2.69,2.69-7.05,4.02-11.6,5.12l-53.63,11.88Z"/>
      <polygon class="cls-1" points="690.43 14.92 690.43 14.93 690.43 14.93 690.43 14.92"/>
      <path class="cls-1" d="m659.92,78.43c.72-.17,1.61-.71,1.92-1.32l15.38-31.77c.2-.4.72-.85,1.13-.89.28-.02.73.59.9,1,.62,1.52,9.2,22.06,10.34,23.41,2.5,2.98,7.89,2.42,11.36.66,4.71-2.39,7.05-5.9,10.21-9.94,2.87-3.66,5.73-7.33,8.56-11.02,3.01-3.92,5.97-7.87,8.98-11.79,1.23-1.6,2.53-3.15,3.8-4.73.14.06.28.13.43.19,0,0-.49,29.17-.52,29.31.02.95.32.81,1.32.61.65-.13,16.95-3.77,17.45-3.88q2.66-.58,2.23-3.38l-2.84-52.73c-.96-1.51-2.48-1.88-4.13-1.91-4.54-.08-8.56,1.57-11.41,4.9-5.6,6.55-27.96,35.61-30.35,38.69-.27.35-.85.54-1.33.63-.17.03-.53-.44-.64-.73l-12.02-28.92c-.11-.09-.83-.6-1.08-.76-3.13-1.54-6.23-.57-9.03.68-4.09,1.82-7.17,4.93-9.27,8.93l-30.7,58.11c-.22.81.09.93.9.75l18.42-4.1Z"/>
      <path class="cls-1" d="m137.94,193.96c1.78-.39,2.24-1,3.26-2.27.59-.72,25.54-30.24,35.97-42.49,1.8,3.31,8.64,15.84,8.79,16.17,1.21,2.59.79,2.67-1.5,3.17-7.04,1.51-14.08,3.06-21.1,4.69-1.06.25-2.13.88-2.95,1.61-1.07.95-1.87,2.18-2.81,3.28-3.55,4.11-7.1,8.22-10.65,12.32-.43.8.47,1.3,1.38,1.08.99-.23,69.16-15.16,69.16-15.16.81-.21.93-.63.52-1.39-1.8-3.33-23.69-45.96-25.09-47.54-2.19-2.45-5.35-3.01-8.47-2.46-5.12.9-9.23,3.81-12.59,7.59-5.71,6.43-53.46,62.66-55.36,64.84-.47,1.41.47,1.2,3.07.56l18.36-3.99Z"/>
      <path class="cls-1" d="m384.02,137.3c-1.01,1.22.02,1.98,1.09,1.7l20.13-4.26c.2-.07.41-.14.61-.22.1-.06.21-.12.31-.18.56-.47,1.17-.89,1.67-1.42,2.19-2.29,24.86-24.6,24.86-24.6.2-.13.89.51,1.35.79l12.91,15.08c.34.38.95.53,1.43.79.63.11,23.86-4.92,24.58-5.18-2.2-2.59-16.18-17.92-20.7-23.07-.3-.35-.46-1.31-.23-1.55,0,0,35.9-35.32,36.06-35.48.37-.4.56-1.78-.64-1.62-6.68,1.48-13.1,2.94-19.79,4.37-1.62.34-2.9,1.07-4.02,2.24-1.77,1.86-24.89,24.82-26.08,26.01-1.9-1.96-3.74-3.69-5.38-5.59-3.25-3.76-6.39-7.61-9.6-11.4-.34-.4-.89-.61-1.35-.91-.13.01-.25.02-.38.03-7.02,1.52-23.08,5.02-23.57,5.14.37.7,18.43,20.56,18.43,20.56,2.49,2.7,2.96,3.58,1.17,6.28l-32.85,32.47Z"/>
      <path class="cls-1" d="m355.52,144.51c-.03.24-.06.49-.09.73,0,0,.01.06.01.06,0,0,.03.11.03.11.21.06.43.12.64.18l17.7-4.09c.24-.17.64-.3.7-.53l9.81-37.11c1.63-5.99,3.25-11.98,4.82-17.98.47-1.81.75-3.67,1.12-5.51-.4-.18-.81-.37-1.21-.55-5.34,1.18-10.68,2.36-16.01,3.54-.23.07-.46.13-.7.2-.42.51-1.08.96-1.24,1.53l-15.59,59.42Z"/>
      <path class="cls-1" d="m111.32,145.37c0-.09-.22-1.11-.31-1.14-.29-.47-.74-.75-.91-.91-3.44-2.37-6.9-1.03-10.16.28-2.8,1.13-5.07,3.23-6.95,5.61-4.27,5.38-8.52,10.76-12.71,16.2-5.18,6.72-10.29,13.49-15.45,20.21-.32.42-.85.67-1.29,1.01-.72-1.83-1.37-3.5-2.04-5.16-1.9-4.66-9.45-22.55-10.15-23.93-1.16-2.06-3.19-2.51-5.24-2.29-5.5.59-9.89,3.26-13.07,7.73-1.38,1.94-32.1,60.5-32.62,61.77,1.44-.32,14.24-3.21,19.54-4.38.83-.18,1.79-.78,2.22-1.47,1.04-1.67,13.94-29.53,16.36-33.14,1.46,3.47,8.42,21.01,9.45,22.47.06.07,2.24,3.13,3.64,3.97,3.03,1.44,6.05,1.01,8.89-.44,3.47-1.77,6.18-4.56,8.57-7.52,4.53-5.59,8.83-11.36,13.22-17.05,3.06-3.97,6.1-7.95,9.19-11.9.31-.4.89-.58,1.34-.87.11.51.33,1.03.31,1.54-.15,4.41-.37,8.82-.53,13.23-.1,2.7-.18,5.41-.19,8.11-.01,2.3.09,4.59.15,7l4.42-.98c3.94-.87,7.87-1.74,11.81-2.61,1.55-.41,3.1-.81,4.65-1.22.04-.14.09-.28.13-.42-.02-.21-1.24-50.59-2.25-53.68Z"/>
    </g>
  </g>
</svg>