<?xml version="1.0" encoding="UTF-8"?>
<svg id="Capa_2" data-name="Capa 2" xmlns="http://www.w3.org/2000/svg" viewBox="0 0 776.66 199.32">
  <defs>
    <style>
      .cls-1 {
        stroke: #fff200;
        stroke-miterlimit: 10;
        stroke-width: .5px;
      }

      .cls-1, .cls-2 {
        fill: none;
      }

      .cls-2 {
        opacity: .1;
      }
    </style>
  </defs>
  <g id="Capa_2-2" data-name="Capa 2-2">
    <g class="cls-2">
      <path class="cls-1" d="m569.84,102.48c-8.84-1.71-15.18-1.13-15.18-1.13-5.26.09-19.39,3.91-26.43,11.36,0,0-12.34,12.86-9.33,25.85,3.1,8.44,9.75,14.55,24.09,17.81,9.11,1.91,32.71,6.58,32.71,6.58l.39-.11c.57-.55,1.25-1.02,1.69-1.64l21.18-29.9c.36-.59-.19-.56-1.08-.77l-32.31-6.54c-2.07-.78-18.77,7.23-21.43,8.47.95.35,1.57.56,2.17.78l24.93,4.92c.76.19,2.23.3,2.1.98-.63,1.03-4.14,5.68-5.26,6.98-.11,0-15.1-3.03-22.46-4.61-1.35-.29-2.73-.77-3.89-1.48-5.21-3.25-6.92-7.49-3.83-12.53,2.66-4.33,6.67-7.13,11.32-9.15,5.62-2.44,11.38-2.36,17.24-1.11.13.03.25.06.38.09l44.21,9.09c.81.09,1.05.4,1.1.67.09.32,5.39,24.82,5.39,24.82-.21.78-10.25,13.97-11.25,15.34-1.06,1.3-.76,1.88,0,2,.31.06,9.79,2,14.09,2.89,2.68.55,4.19-1.31,4.31-1.41l9.82-14.25c.56-.72,1.33-1.38,2.14-1.81,0,0,52.48-24.95,52.73-25.11h0c.29-1.04-1.48-2.68-1.67-2.94l-14.52-3.06c-1.45-.46-2.7-.05-3.91.56-3.25,1.64-33.16,16.95-34.11,17.64-.37-2.67-.69-5-1.01-7.33-1.31-6.37-2.64-12.75-3.96-19.12-.06-.14-.11-.27-.17-.41-.41-.12-.82-.23-1.23-.35-.14-.02-54.35-11.12-54.35-11.12l-4.62-.94h0Z"/>
      <path class="cls-1" d="m277.58,72.52c-.36-.02-.86.19-1.08.47-1.84,2.3-17.29,21.7-18.56,23.24.17.39.33.77.5,1.16l1.31,1.05,14.05,2.81c.69.1,1.38.2,2.06.29.73-.75,8.55-10.08,9.03-10.78.75-1.11,1.67-1.34,3-1.06,7.58,1.59,15.18,3.07,22.76,4.67.95.2,2.18.71,2.61,1.46,1.85,3.18,7.37,13.27,8.48,15.01.87.24,24.51,5.08,25.15,5,.59-.08,1.16-.39,1.74-.61-.33-.66-.66-1.33-.98-1.99-.68-1.35-6.63-12.34-8.69-16.11,1.96-.34,14.61-3.6,15.3-3.87,6.13-2.31,11.14-6.02,14.68-11.55,1.53-2.38,2.59-4.98,2.45-7.86-.25-4.76-7.39-11.1-13.97-13.59-.07-.03-2.57-.8-2.64-.82-47.76-9.82-69.94-14.37-101.44-20.72-1.16-.23-2.41.11-3.52.55-2.59,1.02-13.89,6.45-17.05,7.95-.23.81-.09,1.41.85,1.66l20.65,4.43c.03.15-25.49,32.61-28.89,36.69-.45.54-.82,1,.07,1.45l16.84,3.42c.21.04.42.08.63.11.17-.01.33-.03.5-.04,1.18-1.19,26.25-31.82,30.14-36.67.33-.43.82-.59,1.04-.65.95-1.05,66.77,12.89,70.23,14.01s3.99,4.12,3.84,6.34c-.14,1.94-2.18,4.6-4.57,5.52-3.55,1.37-8.08.81-12.68-.03l-53.83-10.93h0Z"/>
      <polygon class="cls-1" points="716.27 134.69 716.26 134.7 716.26 134.7 716.27 134.69"/>
      <path class="cls-1" d="m662.59,180.33c.73.14,1.76,0,2.29-.43l26.96-22.78c.35-.28,1-.48,1.39-.35.26.1.43.84.42,1.28-.05,1.64-.55,23.9-.06,25.59,1.07,3.74,6.23,5.42,10.11,5.22,5.27-.27,8.84-2.53,13.37-4.94,4.11-2.18,8.21-4.37,12.3-6.59,4.34-2.36,8.65-4.77,13-7.13,1.77-.96,3.59-1.85,5.39-2.78.1.11.2.23.32.35,0,0-12.3,26.46-12.38,26.57-.37.88-.04.87.96,1.09.65.15,17.02,3.44,17.52,3.54,1.78.37,2.91-.36,3.41-2.18l18.83-49.34c-.26-1.77-1.5-2.73-3-3.42-4.12-1.92-8.46-2.04-12.42-.16-7.78,3.71-40.01,21.18-43.45,23.02-.39.21-1,.15-1.47.04-.17-.04-.31-.62-.29-.93l.76-31.31c-.06-.13-.51-.89-.68-1.13-2.23-2.68-5.46-3.05-8.53-3.05-4.48,0-8.55,1.59-12.1,4.39l-51.66,40.63c-.53.65-.3.89.52,1.05l18.5,3.74h0Z"/>
      <path class="cls-1" d="m138.69,73.85c1.78.37,2.45,0,3.9-.75.83-.42,35.62-17.26,50.13-24.21.3,3.76,1.46,17.98,1.46,18.35.05,2.86-.36,2.76-2.66,2.29-7.05-1.48-14.11-2.92-21.19-4.29-1.07-.2-2.3-.06-3.35.27-1.36.43-2.59,1.23-3.9,1.86-4.91,2.31-9.83,4.63-14.74,6.93-.72.56-.1,1.38.82,1.55,1,.19,69.35,14.24,69.35,14.24.83.14,1.11-.2,1.04-1.06-.29-3.77-2.98-51.62-3.61-53.63-1.01-3.13-3.67-4.92-6.74-5.69-5.04-1.26-9.98-.27-14.59,1.82-7.83,3.56-74.3,35.54-76.93,36.76-1,1.1-.06,1.29,2.58,1.76l18.4,3.81h.01Z"/>
      <path class="cls-1" d="m386.57,122.04c-1.42.7-.79,1.82.31,2l20.12,4.28c.21.02.43.04.65.05.12-.01.24-.02.36-.04.7-.2,1.43-.34,2.1-.62,2.93-1.2,32.71-12.38,32.71-12.38.24-.04.61.83.91,1.27l5.67,19.02c.16.49.65.87.99,1.3.53.36,23.8,5.2,24.56,5.25-.96-3.26-7.51-22.95-9.54-29.49-.13-.44.11-1.38.42-1.51,0,0,47.15-17.69,47.36-17.77.5-.22,1.23-1.4.07-1.74-6.71-1.36-13.16-2.64-19.86-4.05-1.62-.35-3.08-.2-4.58.41-2.37.98-32.83,12.57-34.4,13.17-.94-2.56-1.92-4.89-2.65-7.29-1.44-4.76-2.75-9.55-4.14-14.32-.15-.5-.57-.92-.86-1.38-.12-.04-.24-.08-.36-.13-7.03-1.46-23.13-4.79-23.63-4.88.05.79,8.49,26.27,8.49,26.27,1.18,3.48,1.25,4.47-1.48,6.21l-43.21,16.33h-.02Z"/>
      <path class="cls-1" d="m357.59,117.06c-.12.21-.25.42-.38.63l-.02.06-.02.11c.17.14.34.28.51.42l17.84,3.45c.29-.06.71-.01.85-.2l24.04-29.92c3.92-4.81,7.84-9.63,11.71-14.47,1.16-1.46,2.18-3.05,3.26-4.58-.29-.33-.59-.67-.88-.99-5.36-1.09-10.72-2.18-16.07-3.27-.24-.03-.47-.07-.72-.1-.59.3-1.38.44-1.75.89l-38.38,47.96h0Z"/>
      <path class="cls-1" d="m134.1,18.64c.04-.08.25-1.1.18-1.17-.07-.55-.37-.99-.46-1.2-2.18-3.56-5.89-3.74-9.4-3.87-3.02-.1-5.94.89-8.63,2.3-6.09,3.18-12.16,6.37-18.19,9.64-7.46,4.04-14.88,8.15-22.33,12.19-.46.25-1.05.27-1.59.4.09-1.96.17-3.75.23-5.54.16-5.03.53-24.44.45-25.99-.22-2.35-1.9-3.59-3.86-4.22-5.27-1.7-10.36-1.04-15.08,1.75C53.37,4.14,1.51,45.17.52,46.12c1.45.29,14.32,2.85,19.63,3.94.83.17,1.95.01,2.63-.44,1.63-1.1,24.73-21.32,28.41-23.64-.08,3.76-.84,22.62-.49,24.37.03.09.78,3.77,1.71,5.11,2.18,2.55,5.12,3.38,8.3,3.21,3.89-.21,7.5-1.66,10.89-3.39,6.41-3.27,12.68-6.79,19.01-10.21,4.41-2.38,8.8-4.79,13.23-7.14.45-.24,1.05-.17,1.58-.25-.11.51-.12,1.08-.34,1.53-1.93,3.97-3.92,7.91-5.86,11.87-1.19,2.43-2.36,4.87-3.47,7.33-.94,2.1-1.78,4.23-2.71,6.46l4.44.9c3.95.81,7.9,1.61,11.85,2.41,1.58.26,3.16.52,4.74.77.09-.11.2-.22.29-.33.07-.2,19.42-46.73,19.75-49.97v-.03Z"/>
    </g>
  </g>
</svg>