<svg width="28" height="27" viewBox="0 0 28 27" fill="none" xmlns="http://www.w3.org/2000/svg">
<mask id="path-1-inside-1_48_1914" fill="white">
<path d="M13.9688 0C6.51295 0 0.46875 6.0442 0.46875 13.5C0.46875 20.9562 6.51295 27 13.9688 27C21.425 27 27.4688 20.9562 27.4688 13.5C27.4688 6.0442 21.425 0 13.9688 0ZM13.9688 25.3391C7.45542 25.3391 2.15625 20.0133 2.15625 13.4999C2.15625 6.98662 7.45542 1.68745 13.9688 1.68745C20.4821 1.68745 25.7812 6.98665 25.7812 13.4999C25.7812 20.0132 20.4821 25.3391 13.9688 25.3391ZM19.3565 8.56027L11.4358 16.5308L7.86883 12.9638C7.53935 12.6343 7.00526 12.6343 6.67535 12.9638C6.34586 13.2933 6.34586 13.8274 6.67535 14.1569L10.8515 18.3334C11.181 18.6625 11.7151 18.6625 12.045 18.3334C12.0829 18.2955 12.1155 18.2541 12.145 18.2111L20.5504 9.75372C20.8795 9.42424 20.8795 8.89015 20.5504 8.56027C20.2205 8.23078 19.6864 8.23078 19.3565 8.56027Z"/>
</mask>
<path d="M13.9688 0C6.51295 0 0.46875 6.0442 0.46875 13.5C0.46875 20.9562 6.51295 27 13.9688 27C21.425 27 27.4688 20.9562 27.4688 13.5C27.4688 6.0442 21.425 0 13.9688 0ZM13.9688 25.3391C7.45542 25.3391 2.15625 20.0133 2.15625 13.4999C2.15625 6.98662 7.45542 1.68745 13.9688 1.68745C20.4821 1.68745 25.7812 6.98665 25.7812 13.4999C25.7812 20.0132 20.4821 25.3391 13.9688 25.3391ZM19.3565 8.56027L11.4358 16.5308L7.86883 12.9638C7.53935 12.6343 7.00526 12.6343 6.67535 12.9638C6.34586 13.2933 6.34586 13.8274 6.67535 14.1569L10.8515 18.3334C11.181 18.6625 11.7151 18.6625 12.045 18.3334C12.0829 18.2955 12.1155 18.2541 12.145 18.2111L20.5504 9.75372C20.8795 9.42424 20.8795 8.89015 20.5504 8.56027C20.2205 8.23078 19.6864 8.23078 19.3565 8.56027Z" fill="#00720B"/>
<path d="M19.3565 8.56027L15.8232 5.02247L15.8166 5.02913L15.8099 5.03582L19.3565 8.56027ZM11.4358 16.5308L7.90025 20.0663L11.4469 23.6129L14.9824 20.0552L11.4358 16.5308ZM7.86883 12.9638L4.3333 16.4993H4.3333L7.86883 12.9638ZM6.67535 12.9638L3.14208 9.426L3.13981 9.42826L6.67535 12.9638ZM6.67535 14.1569L10.2111 10.6215L10.2109 10.6213L6.67535 14.1569ZM10.8515 18.3334L7.31578 21.8688L7.31822 21.8712L10.8515 18.3334ZM12.045 18.3334L15.576 21.8735L15.5805 21.869L12.045 18.3334ZM12.145 18.2111L8.59858 14.6864L8.27948 15.0075L8.02323 15.3807L12.145 18.2111ZM20.5504 9.75372L17.0126 6.22045L17.004 6.22909L20.5504 9.75372ZM20.5504 8.56027L24.0903 5.02911L24.0837 5.02247L20.5504 8.56027ZM13.9688 -5C3.75153 -5 -4.53125 3.28278 -4.53125 13.5H5.46875C5.46875 8.80563 9.27438 5 13.9688 5V-5ZM-4.53125 13.5C-4.53125 23.7177 3.75163 32 13.9688 32V22C9.27427 22 5.46875 18.1947 5.46875 13.5H-4.53125ZM13.9688 32C24.1864 32 32.4688 23.7176 32.4688 13.5H22.4688C22.4688 18.1948 18.6635 22 13.9688 22V32ZM32.4688 13.5C32.4688 3.28288 24.1865 -5 13.9688 -5V5C18.6634 5 22.4688 8.80552 22.4688 13.5H32.4688ZM13.9688 20.3391C10.2315 20.3391 7.15625 17.2666 7.15625 13.4999H-2.84375C-2.84375 22.7601 4.67937 30.3391 13.9688 30.3391V20.3391ZM7.15625 13.4999C7.15625 9.74804 10.2168 6.68745 13.9688 6.68745V-3.31255C4.694 -3.31255 -2.84375 4.2252 -2.84375 13.4999H7.15625ZM13.9688 6.68745C17.7206 6.68745 20.7812 9.74806 20.7812 13.4999H30.7812C30.7812 4.22523 23.2435 -3.31255 13.9688 -3.31255V6.68745ZM20.7812 13.4999C20.7812 17.2665 17.706 20.3391 13.9688 20.3391V30.3391C23.2581 30.3391 30.7812 22.76 30.7812 13.4999H20.7812ZM15.8099 5.03582L7.8892 13.0063L14.9824 20.0552L22.9031 12.0847L15.8099 5.03582ZM14.9713 12.9952L11.4044 9.42826L4.3333 16.4993L7.90025 20.0663L14.9713 12.9952ZM11.4044 9.42826C9.12101 7.14491 5.42284 7.14816 3.14208 9.426L10.2086 16.5016C8.58767 18.1205 5.95768 18.1237 4.3333 16.4993L11.4044 9.42826ZM3.13981 9.42826C0.857709 11.7104 0.857709 15.4103 3.13981 17.6924L10.2109 10.6213C11.834 12.2445 11.834 14.8762 10.2109 16.4993L3.13981 9.42826ZM3.13964 17.6922L7.31578 21.8688L14.3872 14.7981L10.2111 10.6215L3.13964 17.6922ZM7.31822 21.8712C9.60106 24.1511 13.2957 24.1479 15.576 21.8735L8.51397 14.7934C10.1344 13.1771 12.7609 13.1738 14.3848 14.7956L7.31822 21.8712ZM15.5805 21.869C15.8926 21.5568 16.1169 21.2596 16.2667 21.0415L8.02323 15.3807C8.11397 15.2485 8.27326 15.0341 8.50944 14.7979L15.5805 21.869ZM15.6914 21.7357L24.0968 13.2784L17.004 6.22909L8.59858 14.6864L15.6914 21.7357ZM24.0882 13.287C26.3681 11.0042 26.365 7.30944 24.0903 5.02912L17.0105 12.0914C15.394 10.4708 15.3909 7.84424 17.0126 6.22046L24.0882 13.287ZM24.0837 5.02247C21.8017 2.74338 18.1053 2.74338 15.8232 5.02247L22.8898 12.0981C21.2676 13.7182 18.6393 13.7182 17.0172 12.0981L24.0837 5.02247Z" fill="#00720B" mask="url(#path-1-inside-1_48_1914)"/>
</svg>
