<svg width="51" height="51" viewBox="0 0 51 51" fill="none" xmlns="http://www.w3.org/2000/svg">
<g clip-path="url(#clip0_48_2202)">
<path d="M25.5 51C39.5833 51 51 39.5833 51 25.5C51 11.4167 39.5833 0 25.5 0C11.4167 0 0 11.4167 0 25.5C0 39.5833 11.4167 51 25.5 51Z" fill="#E9DD01"/>
<path d="M33.4231 27.6264L34.3702 21.4643H28.4587V17.4655C28.4587 15.7812 29.2842 14.1375 31.9304 14.1375H34.6172V8.89302C34.6172 8.89302 32.1774 8.47656 29.8481 8.47656C24.9796 8.47656 21.799 11.4287 21.799 16.7689V21.4643H16.3887V27.6264H21.799V42.5196H28.4587V27.6264H33.4231Z" fill="#1E1E1E"/>
</g>
<defs>
<clipPath id="clip0_48_2202">
<rect width="51" height="51" fill="white"/>
</clipPath>
</defs>
</svg>
