<?xml version="1.0" encoding="UTF-8"?>
<svg id="Capa_2" data-name="Capa 2" xmlns="http://www.w3.org/2000/svg" viewBox="0 0 125.45 58.9">
  <defs>
    <style>
      .cls-1 {
        fill: #fff200;
      }
    </style>
  </defs>
  <g id="Capa_2-2" data-name="Capa 2">
    <path class="cls-1" d="m125.43,4.63c.02-.09.03-1.13-.05-1.18-.18-.52-.56-.89-.69-1.08-2.85-3.05-6.52-2.5-9.98-1.92-2.98.5-5.65,2.06-8,3.97-5.33,4.33-10.64,8.67-15.91,13.07-6.51,5.44-12.96,10.95-19.45,16.4-.4.34-.98.47-1.48.7-.31-1.94-.58-3.71-.88-5.48-.85-4.96-4.36-24.06-4.74-25.56-.69-2.26-2.58-3.14-4.62-3.37-5.49-.62-10.36,1.04-14.43,4.72C43.43,6.52.79,57.06,0,58.19c1.48,0,14.6-.06,20.03-.06.85,0,1.92-.38,2.48-.96,1.37-1.41,19.99-25.82,23.13-28.83.67,3.7,3.68,22.33,4.37,23.98.05.08,1.51,3.54,2.7,4.66,2.65,2.06,5.69,2.29,8.77,1.49,3.77-.98,7.02-3.12,10-5.49,5.63-4.48,11.07-9.18,16.59-13.8,3.85-3.22,7.67-6.45,11.54-9.64.39-.32.99-.38,1.5-.56,0,.53.1,1.08-.03,1.57-1.1,4.27-2.26,8.53-3.37,12.81-.68,2.62-1.35,5.24-1.94,7.88-.51,2.24-.9,4.5-1.37,6.87h4.52c4.03,0,8.06,0,12.1,0,1.6-.06,3.2-.13,4.81-.19.07-.13.15-.26.22-.38.03-.21,9.72-49.67,9.4-52.9Z"/>
  </g>
</svg>