<svg width="51" height="51" viewBox="0 0 51 51" fill="none" xmlns="http://www.w3.org/2000/svg">
<g clip-path="url(#clip0_48_2208)">
<path d="M25.5 51C39.5833 51 51 39.5833 51 25.5C51 11.4167 39.5833 0 25.5 0C11.4167 0 0 11.4167 0 25.5C0 39.5833 11.4167 51 25.5 51Z" fill="#E9DD01"/>
<path d="M25.5041 16.6989C20.6318 16.6989 16.7031 20.6276 16.7031 25.4999C16.7031 30.3721 20.6318 34.3008 25.5041 34.3008C30.3763 34.3008 34.3051 30.3721 34.3051 25.4999C34.3051 20.6276 30.3763 16.6989 25.5041 16.6989ZM25.5041 31.2234C22.3567 31.2234 19.7805 28.6583 19.7805 25.4999C19.7805 22.3414 22.3456 19.7763 25.5041 19.7763C28.6626 19.7763 31.2277 22.3414 31.2277 25.4999C31.2277 28.6583 28.6552 31.2234 25.5041 31.2234ZM36.7191 16.3377C36.7191 17.4802 35.8014 18.3905 34.6662 18.3905C33.5311 18.3905 32.6134 17.4728 32.6134 16.3377C32.6134 15.2026 33.5311 14.2849 34.6662 14.2849C35.8014 14.2849 36.7191 15.2026 36.7191 16.3377ZM42.5495 18.42C42.4205 15.6706 41.7903 13.2345 39.7744 11.2259C37.7658 9.21731 35.3296 8.59077 32.5802 8.45072C29.7461 8.28856 21.251 8.28856 18.4132 8.45072C15.6712 8.57972 13.235 9.20994 11.2191 11.2149C9.2031 13.2198 8.58394 15.6596 8.44389 18.409C8.28173 21.2431 8.28173 29.7382 8.44389 32.576C8.57288 35.3254 9.2031 37.7615 11.2191 39.7701C13.235 41.7787 15.6638 42.4053 18.4132 42.5453C21.2473 42.7075 29.7424 42.7075 32.5802 42.5453C35.3296 42.4163 37.7658 41.7861 39.7744 39.7701C41.783 37.7615 42.4095 35.3254 42.5495 32.576C42.7117 29.7419 42.7117 21.2542 42.5495 18.4163V18.42ZM38.8861 35.6203C38.2891 37.1203 37.1318 38.2775 35.6208 38.8856C33.3616 39.7812 27.9992 39.5748 25.5004 39.5748C23.0016 39.5748 17.6318 39.7738 15.38 38.8856C13.88 38.2886 12.7228 37.1313 12.1146 35.6203C11.2191 33.361 11.4255 27.9986 11.4255 25.4999C11.4255 23.0011 11.2264 17.6313 12.1146 15.3795C12.7117 13.8795 13.8689 12.7222 15.38 12.1141C17.6392 11.2185 23.0016 11.4249 25.5004 11.4249C27.9992 11.4249 33.3689 11.2259 35.6208 12.1141C37.1208 12.7112 38.278 13.8684 38.8861 15.3795C39.7817 17.6387 39.5753 23.0011 39.5753 25.4999C39.5753 27.9986 39.7817 33.3684 38.8861 35.6203Z" fill="#1E1E1E"/>
</g>
<defs>
<clipPath id="clip0_48_2208">
<rect width="51" height="51" fill="white"/>
</clipPath>
</defs>
</svg>
