<svg width="306" height="37" viewBox="0 0 306 37" fill="none" xmlns="http://www.w3.org/2000/svg">
<g clip-path="url(#clip0_50_298)">
<path d="M164.79 17.9835C164.575 18.0195 164.308 18.1985 164.213 18.3832C163.411 19.9445 156.717 33.1019 156.165 34.1567C156.308 34.365 156.451 34.5673 156.594 34.7755L157.482 35.2331L166.013 35.1932C166.423 35.1689 166.84 35.1386 167.251 35.1143C167.59 34.5898 171.041 28.2075 171.231 27.7487C171.534 27.0099 172.045 26.7711 172.855 26.7701C177.463 26.7944 182.077 26.7473 186.685 26.7776C187.262 26.7769 188.036 26.9308 188.382 27.3115C189.843 28.9475 194.266 34.1711 195.118 35.0575C195.648 35.0926 210.02 35.0994 210.383 34.968C210.722 34.8485 211.013 34.598 211.323 34.407C211.054 34.056 210.786 33.7109 210.512 33.3599C209.951 32.6518 205.176 26.9582 203.525 25.0008C204.626 24.5647 211.623 21.15 211.991 20.9173C215.287 18.835 217.766 16.0747 219.173 12.4283C219.778 10.8494 220.092 9.21726 219.661 7.55026C218.95 4.80567 214.023 1.95887 209.89 1.2908C209.843 1.2849 208.301 1.12593 208.253 1.12598C179.224 1.09483 165.746 1.08696 146.612 1.15129C145.91 1.15212 145.219 1.50431 144.63 1.8921C143.244 2.79301 137.302 7.32018 135.637 8.56088C135.602 9.06117 135.751 9.38854 136.328 9.42955L148.902 9.54568C148.938 9.62902 137.926 31.6115 136.429 34.4004C136.233 34.7699 136.073 35.0797 136.639 35.2398L146.873 35.2277C146.998 35.2216 147.123 35.2155 147.254 35.2154C147.349 35.1855 147.444 35.1616 147.539 35.1317C148.086 34.2913 159.051 13.4345 160.744 10.1391C160.887 9.84714 161.154 9.69794 161.279 9.63228C161.707 8.90521 201.768 9.1794 203.911 9.42699C206.055 9.67458 206.729 11.3532 206.903 12.6632C207.054 13.8124 206.181 15.612 204.896 16.4294C202.986 17.6465 200.284 17.8641 197.497 17.921L164.796 17.9597L164.79 17.9835Z" fill="#181818"/>
<path d="M83.9466 35.3436C85.0301 35.3423 85.375 35.0441 86.1363 34.4417C86.5705 34.0958 104.849 20.1207 112.486 14.329C113.108 16.4841 115.487 24.6521 115.535 24.8545C115.906 26.5156 115.656 26.51 114.263 26.5056C109.976 26.4869 105.684 26.4801 101.397 26.5328C100.748 26.5395 100.046 26.7726 99.4751 27.0949C98.7314 27.5126 98.107 28.1268 97.423 28.6397C94.8356 30.5783 92.2422 32.5109 89.6548 34.4435C89.304 34.8549 89.7629 35.2593 90.3166 35.2527C90.9238 35.246 132.466 35.2862 132.466 35.2862C132.961 35.2677 133.085 35.0353 132.948 34.5412C132.332 32.3801 125.054 4.77951 124.44 3.68445C123.485 1.97638 121.716 1.25191 119.829 1.17077C116.739 1.03746 113.972 2.20203 111.539 3.97366C107.399 6.98604 72.4426 33.5765 71.0566 34.6025C70.6051 35.3653 71.1766 35.3647 72.7721 35.3211L83.9525 35.3495L83.9466 35.3436Z" fill="#181818"/>
<path d="M234.271 33.8677C233.528 34.4463 234.028 35.0234 234.683 34.9988L246.929 35.0974C247.054 35.0794 247.185 35.0673 247.31 35.0493C247.382 35.0254 247.447 35.0075 247.519 34.9836C247.905 34.7806 248.316 34.6134 248.673 34.3748C250.237 33.3248 266.276 23.2471 266.276 23.2471C266.407 23.1993 266.729 23.6575 266.961 23.8776L272.534 34.2989C272.677 34.5667 273.017 34.7271 273.267 34.9412C273.618 35.0897 287.769 35.1325 288.216 35.0724C287.267 33.2869 281.099 22.5804 279.13 19.0036C278.999 18.7655 279.028 18.1819 279.194 18.0745C279.194 18.0745 304.584 2.12566 304.703 2.04809C304.965 1.86317 305.256 1.08862 304.535 1.02397C300.463 1.02878 296.54 1.05725 292.468 1.03825C291.486 1.03345 290.647 1.29053 289.843 1.82746C288.576 2.68059 272.193 13.0802 271.354 13.6172C270.501 12.2366 269.655 10.9929 268.939 9.67759C267.531 7.07675 266.2 4.43413 264.816 1.82135C264.672 1.54757 264.374 1.3514 264.148 1.1194C264.07 1.10759 263.999 1.10171 263.922 1.0899C259.647 1.07709 249.86 1.05889 249.562 1.0652C249.688 1.51766 257.646 15.3843 257.646 15.3843C258.749 17.2709 258.911 17.8424 257.519 19.184L234.265 33.8677L234.271 33.8677Z" fill="#181818"/>
<path d="M216.782 34.4118C216.734 34.5488 216.687 34.6859 216.64 34.8229L216.64 34.8586L216.64 34.9301C216.759 34.9895 216.872 35.0549 216.991 35.1143L227.802 35.0003C227.963 34.9286 228.213 34.9045 228.278 34.7853L238.726 14.4531C240.443 11.1816 242.148 7.90412 243.828 4.6088C244.333 3.61365 244.737 2.57098 245.188 1.54611C244.98 1.38557 244.765 1.23098 244.557 1.07043C241.3 1.07428 238.05 1.07813 234.793 1.08198C234.65 1.09406 234.507 1.10019 234.364 1.11227C234.055 1.35085 233.615 1.53003 233.449 1.84587L216.782 34.4118Z" fill="#181818"/>
<path d="M74.6821 3.67188C74.694 3.61827 74.6992 2.9989 74.6515 2.96918C74.544 2.65962 74.3175 2.43954 74.24 2.32648C72.5411 0.512098 70.3566 0.84223 68.2972 1.19008C66.5234 1.48995 64.935 2.42087 63.5373 3.56C60.3672 6.14244 57.209 8.73082 54.0747 11.3549C50.2029 14.5992 46.3669 17.8852 42.507 21.1354C42.2691 21.3382 41.9239 21.416 41.6264 21.5534C41.4404 20.3982 41.2785 19.3443 41.0986 18.2904C40.5891 15.3371 38.486 3.96484 38.2587 3.0718C37.8463 1.72637 36.7205 1.20363 35.5059 1.06809C32.237 0.702725 29.3389 1.69475 26.9185 3.8892C25.8659 4.85522 0.516392 34.9838 0.0468728 35.6573C0.92797 35.6562 8.73874 35.6113 11.9714 35.6074C12.4774 35.6068 13.1142 35.3798 13.4472 35.034C14.2618 34.1933 25.3297 19.6431 27.197 17.8483C27.5984 20.0513 29.4035 31.1441 29.8155 32.1262C29.8453 32.1738 30.7169 34.2334 31.4262 34.8995C33.0053 36.1245 34.8153 36.2593 36.6483 35.7807C38.8921 35.1944 40.8254 33.9177 42.5978 32.5042C45.9464 29.8322 49.1817 27.0293 52.4647 24.274C54.7545 22.3537 57.0264 20.4274 59.3281 18.5249C59.5601 18.3341 59.9172 18.2979 60.2207 18.1904C60.2211 18.506 60.281 18.8335 60.204 19.1254C59.5521 21.6691 58.8645 24.2069 58.2067 26.7566C57.8037 28.3174 57.4067 29.8782 57.0573 31.4508C56.7553 32.7852 56.5247 34.1314 56.2465 35.5431L58.9374 35.5399C61.3367 35.5371 63.7359 35.5343 66.141 35.5314C67.0935 35.4946 68.046 35.4517 69.0045 35.4149C69.046 35.3374 69.0936 35.2599 69.1352 35.1884C69.1529 35.0633 74.8868 5.60118 74.694 3.67782L74.6821 3.67188Z" fill="#181818"/>
</g>
<defs>
<clipPath id="clip0_50_298">
<rect width="304.987" height="35.0768" fill="white" transform="translate(0.00585938 1.00293) rotate(-0.0678056)"/>
</clipPath>
</defs>
</svg>
