<?xml version="1.0" encoding="utf-8"?>
<!-- Generator: Adobe Illustrator 27.7.0, SVG Export Plug-In . SVG Version: 6.00 Build 0)  -->
<svg version="1.1" id="Capa_1" xmlns="http://www.w3.org/2000/svg" xmlns:xlink="http://www.w3.org/1999/xlink" x="0px" y="0px"
	 viewBox="0 0 19 17" style="enable-background:new 0 0 19 17;" xml:space="preserve">
<style type="text/css">
	.st0{fill:#E9DD01;}
</style>
<g id="Capa_1-2">
	<path class="st0" d="M17.4,13.9c0.4,0.4,0.5,0.7,0.5,1.2s-0.1,0.9-0.5,1.2c-0.4,0.4-0.7,0.6-1.2,0.6s-0.9-0.1-1.3-0.4l-0.1-0.1
		L1.5,3.1C1.2,2.7,1,2.2,1,1.8s0.1-0.9,0.5-1.2C1.7,0.2,2.2,0,2.7,0S3.6,0.1,4,0.4l0.1,0.1L17.4,13.9z"/>
	<path class="st0" d="M14.9,0.7c0.4-0.4,0.8-0.5,1.3-0.5c0.5,0,0.9,0.2,1.3,0.5C17.9,0.9,18,1.5,18,2s-0.2,1-0.5,1.3L4.1,16.5
		C3.7,16.9,3.2,17,2.8,17s-0.9-0.1-1.3-0.5C1.1,16.2,1,15.8,1,15.3s0.2-0.9,0.5-1.3L14.9,0.7z"/>
</g>
</svg>
