<?xml version="1.0" encoding="utf-8"?>
<!-- Generator: Adobe Illustrator 27.7.0, SVG Export Plug-In . SVG Version: 6.00 Build 0)  -->
<svg version="1.1" id="Capa_1" xmlns="http://www.w3.org/2000/svg" xmlns:xlink="http://www.w3.org/1999/xlink" x="0px" y="0px"
	 viewBox="0 0 19 17" style="enable-background:new 0 0 19 17;" xml:space="preserve">
<style type="text/css">
	.st0{fill:#E9DD01;}
</style>
<path class="st0" d="M17.5,14c0.4,0,0.8,0.1,1,0.4c0.3,0.3,0.4,0.6,0.5,1c0,0.4-0.1,0.8-0.4,1.1c-0.3,0.3-0.6,0.5-1,0.5l-0.1,0h-16
	c-0.4,0-0.8-0.1-1-0.4S0,16,0,15.6c0-0.4,0.1-0.8,0.4-1.1C0.6,14.2,1,14,1.4,14l0.1,0H17.5z M17.5,7c0.4,0,0.8,0.2,1.1,0.4
	S19,8.1,19,8.5s-0.2,0.8-0.4,1.1c-0.3,0.3-0.7,0.4-1.1,0.4h-16c-0.4,0-0.8-0.2-1.1-0.4C0.2,9.3,0,8.9,0,8.5s0.2-0.8,0.4-1.1
	C0.7,7.2,1.1,7,1.5,7H17.5z M17.5,0c0.4,0,0.8,0.2,1.1,0.4C18.8,0.7,19,1.1,19,1.5s-0.2,0.8-0.4,1.1S17.9,3,17.5,3h-16
	C1.1,3,0.7,2.8,0.4,2.6C0.2,2.3,0,1.9,0,1.5s0.2-0.8,0.4-1.1C0.7,0.2,1.1,0,1.5,0H17.5z"/>
</svg>
