<svg width="51" height="51" viewBox="0 0 51 51" fill="none" xmlns="http://www.w3.org/2000/svg">
<g clip-path="url(#clip0_48_2205)">
<path d="M25.5 51C39.5833 51 51 39.5833 51 25.5C51 11.4167 39.5833 0 25.5 0C11.4167 0 0 11.4167 0 25.5C0 39.5833 11.4167 51 25.5 51Z" fill="#E9DD01"/>
<path d="M37.4227 13.4264C34.2385 10.2348 30.0001 8.48047 25.4928 8.48047C16.1905 8.48047 8.6242 16.0505 8.6242 25.349C8.6242 28.3195 9.39816 31.2237 10.8724 33.7851L8.48047 42.5235L17.4252 40.1758C19.8871 41.521 22.6623 42.2286 25.4891 42.2286H25.4964C34.7913 42.2286 42.5271 34.6586 42.5271 25.3601C42.5271 20.8527 40.6107 16.6217 37.4301 13.4301L37.4227 13.4264ZM25.4928 39.3834C22.9682 39.3834 20.4989 38.7053 18.3502 37.4301L17.8416 37.1279L12.5382 38.5173L13.9534 33.3429L13.6181 32.8122C12.2139 30.5787 11.4768 28.0026 11.4768 25.349C11.4768 17.6205 17.7679 11.3294 25.5038 11.3294C29.2483 11.3294 32.7679 12.7888 35.4141 15.4387C38.0603 18.0886 39.6856 21.6082 39.6783 25.3564C39.6783 33.0923 33.2249 39.3834 25.5001 39.3834H25.4928ZM33.1844 28.8834C32.7679 28.6697 30.693 27.6525 30.306 27.5161C29.919 27.3724 29.6389 27.3023 29.3552 27.7299C29.0751 28.1537 28.2679 29.0972 28.0173 29.3846C27.7741 29.6647 27.5235 29.7053 27.107 29.4915C24.6303 28.2532 23.005 27.2802 21.3687 24.4756C20.9338 23.7311 21.8036 23.7827 22.607 22.1721C22.7434 21.892 22.677 21.6488 22.5702 21.435C22.4633 21.2213 21.6193 19.1463 21.2692 18.306C20.9264 17.4842 20.5763 17.5984 20.3183 17.5837C20.0751 17.5689 19.795 17.5689 19.5112 17.5689C19.2274 17.5689 18.7741 17.6758 18.3871 18.0923C18.0001 18.5161 16.9129 19.537 16.9129 21.6119C16.9129 23.6869 18.424 25.6918 18.6303 25.9719C18.8441 26.252 21.6009 30.5087 25.8355 32.3404C28.5112 33.494 29.5579 33.5935 30.8957 33.3982C31.7102 33.2765 33.3871 32.381 33.7372 31.3932C34.0873 30.4055 34.0873 29.5615 33.9805 29.3883C33.881 29.1967 33.6009 29.0935 33.1844 28.8871V28.8834Z" fill="#1E1E1E"/>
</g>
<defs>
<clipPath id="clip0_48_2205">
<rect width="51" height="51" fill="white"/>
</clipPath>
</defs>
</svg>
